<?xml version="1.0" encoding="utf-8"?>
<svg xmlns="http://www.w3.org/2000/svg" viewBox="-5 -10 120 120">
  <path d="M 87.442 6.236 L 77.559 6.236 C 71.386 6.247 66.384 11.249 66.373 17.422 L 66.373 45.084 C 63.328 45.444 60.258 44.666 57.752 42.899 C 56.95 42.273 55.825 42.273 55.023 42.899 C 52.867 44.395 50.306 45.198 47.681 45.199 C 45.059 45.199 42.497 44.394 40.344 42.899 C 39.542 42.273 38.417 42.273 37.615 42.899 C 35.459 44.395 32.897 45.198 30.273 45.199 C 27.651 45.199 25.089 44.394 22.935 42.899 C 22.133 42.273 21.008 42.273 20.206 42.899 C 18.078 44.454 15.499 45.267 12.864 45.213 C 11.629 45.213 10.627 46.215 10.627 47.451 L 10.627 80.065 C 10.639 87.886 16.977 94.224 24.798 94.236 L 87.441 94.236 C 93.615 94.225 98.617 89.223 98.627 83.05 L 98.627 17.421 C 98.617 11.248 93.615 6.246 87.441 6.235 L 87.442 6.236 Z M 21.569 47.374 C 24.215 48.902 27.217 49.708 30.274 49.709 C 33.329 49.709 36.332 48.901 38.977 47.374 C 44.361 50.493 51.002 50.493 56.386 47.374 C 59.411 49.112 62.896 49.883 66.373 49.583 L 66.373 56.847 C 63.329 57.217 60.252 56.435 57.753 54.652 C 56.948 54.03 55.825 54.03 55.019 54.652 C 50.61 57.724 44.754 57.724 40.345 54.652 C 39.54 54.03 38.416 54.03 37.611 54.652 C 33.202 57.725 27.345 57.725 22.935 54.652 C 22.133 54.026 21.008 54.026 20.206 54.652 C 18.704 55.766 16.952 56.496 15.102 56.777 L 15.102 49.555 C 17.387 49.288 19.589 48.544 21.569 47.374 M 15.102 80.065 L 15.102 61.304 C 17.385 61.035 19.588 60.293 21.569 59.125 C 24.214 60.657 27.217 61.462 30.274 61.461 C 33.329 61.461 36.332 60.657 38.977 59.125 C 41.624 60.657 44.627 61.464 47.685 61.465 C 50.741 61.465 53.743 60.657 56.39 59.125 C 59.415 60.863 62.896 61.642 66.373 61.36 L 66.373 89.762 L 24.799 89.762 C 19.447 89.755 15.109 85.417 15.102 80.065 M 94.15 83.047 L 94.153 83.051 C 94.145 86.754 91.145 89.754 87.442 89.762 L 70.848 89.762 L 70.848 81.512 L 78.7 81.512 C 80.422 81.512 81.499 79.648 80.638 78.156 C 80.238 77.464 79.5 77.038 78.7 77.038 L 70.848 77.038 L 70.848 66.994 L 75.669 66.994 C 77.391 66.994 78.468 65.13 77.607 63.638 C 77.207 62.946 76.469 62.52 75.669 62.52 L 70.848 62.52 L 70.848 59.284 C 70.926 58.956 70.926 58.615 70.848 58.288 L 70.848 52.474 L 78.7 52.474 C 79.934 52.474 80.938 51.47 80.938 50.236 C 80.938 49.003 79.934 47.999 78.7 47.999 L 70.848 47.999 L 70.848 37.952 L 75.669 37.952 C 77.391 37.952 78.468 36.088 77.607 34.596 C 77.207 33.904 76.469 33.478 75.669 33.478 L 70.848 33.478 L 70.848 23.431 L 78.7 23.431 C 80.422 23.431 81.499 21.566 80.638 20.075 C 80.238 19.382 79.5 18.956 78.7 18.956 L 70.848 18.956 L 70.848 17.42 C 70.857 13.717 73.857 10.717 77.56 10.709 L 87.443 10.709 C 91.146 10.717 94.146 13.717 94.154 17.42 L 94.15 83.047 Z"/>
</svg>