<?xml version="1.0" encoding="utf-8"?>
<svg xmlns="http://www.w3.org/2000/svg" viewBox="-5 -10 120 120" width="150px" height="150px">
  <path d="M 13.255 97.373 C 13.508 97.373 13.765 97.33 14.018 97.233 C 20.768 94.677 25.349 90.606 27.626 85.14 C 30.444 78.379 29.564 69.742 25 59.475 C 23.625 56.385 23.442 53.797 24.442 51.558 C 26.933 45.967 36.481 42.859 44.909 40.12 C 51.02 38.132 56.299 36.413 59.28 33.804 C 61.481 31.875 63.661 29.55 63.157 26.957 C 62.593 24.067 59.321 22.924 54.79 21.344 C 52.287 20.474 49.457 19.487 46.498 18.053 C 45.8 17.714 44.624 17.031 44.624 16.258 C 44.624 13.74 51.465 8.719 57.861 5.604 C 58.925 5.081 59.369 3.798 58.855 2.73 C 58.333 1.666 57.05 1.223 55.982 1.736 C 53.367 3.009 40.322 9.685 40.326 16.257 C 40.326 17.89 41.073 20.195 44.63 21.913 C 47.808 23.453 50.896 24.528 53.378 25.393 C 55.564 26.156 58.554 27.197 58.931 27.68 C 58.925 27.713 58.796 28.503 56.449 30.565 C 54.134 32.594 49.006 34.259 43.581 36.026 C 34.301 39.045 23.787 42.46 20.517 49.801 C 19.018 53.17 19.2 57.01 21.075 61.214 C 25.14 70.361 26.01 77.852 23.664 83.479 C 21.858 87.814 18.1 91.083 12.497 93.21 C 10.953 93.807 10.633 95.851 11.921 96.891 C 12.301 97.196 12.774 97.365 13.26 97.366 L 13.255 97.373 Z M 83.36 20.426 C 88.295 20.871 93.886 21.381 95.379 24.055 C 96.533 26.128 95.223 29.689 93.924 32.31 C 92.237 35.711 89.519 38.729 85.862 41.279 C 81.669 44.2 75.224 50.971 79.18 63.513 C 80.063 66.299 80.981 68.899 81.872 71.407 C 86.706 85.037 88.414 91.257 78.151 95.725 C 77.063 96.202 76.565 97.467 77.038 98.555 C 77.511 99.644 78.776 100.142 79.864 99.666 C 94.229 93.411 90.378 82.546 85.921 69.973 C 85.041 67.498 84.134 64.935 83.273 62.219 C 80.298 52.799 84.374 47.552 88.312 44.808 C 92.57 41.843 95.75 38.283 97.764 34.222 C 100.362 28.987 100.808 24.975 99.122 21.961 C 96.524 17.312 89.735 16.693 83.746 16.151 C 80.202 15.829 75.786 15.427 74.767 14.121 C 73.81 12.891 73.886 12.038 74.025 11.506 C 74.729 8.825 79.422 6.323 81.013 5.663 C 82.107 5.206 82.624 3.95 82.172 2.854 C 81.718 1.76 80.463 1.24 79.369 1.694 C 78.542 2.037 71.249 5.195 69.874 10.41 C 69.476 11.919 69.412 14.246 71.384 16.769 C 73.548 19.546 78.096 19.958 83.358 20.437 L 83.36 20.426 Z" style="paint-order: fill;"/>
  <path d="M 83.198 31.751 C 82.886 30.981 82.158 30.459 81.328 30.408 C 79.256 30.291 74.481 29.49 72.929 27.762 C 72.53 27.316 71.964 27.058 71.366 27.047 C 70.768 27.032 70.192 27.272 69.782 27.707 L 50.766 47.477 L 44.263 46.461 C 43.6 46.357 42.926 46.571 42.442 47.035 C 41.958 47.503 41.722 48.163 41.796 48.829 L 43.934 67.293 C 44.1 68.779 45.701 69.642 47.033 68.964 L 72.563 56.134 C 74.041 55.398 74.169 53.339 72.793 52.427 C 72.545 52.262 72.265 52.151 71.972 52.1 L 66.861 51.198 L 82.784 34.013 C 83.349 33.403 83.512 32.521 83.203 31.747 L 83.198 31.751 Z M 61.029 51.171 C 59.907 52.383 60.517 54.356 62.128 54.722 C 62.163 54.73 62.197 54.737 62.232 54.743 L 64.846 55.204 L 47.85 63.748 L 46.395 51.139 L 51.212 51.89 C 51.905 52.001 52.608 51.765 53.092 51.257 L 71.528 32.09 C 73.139 33.089 75.116 33.706 76.856 34.093 L 61.033 51.165 L 61.029 51.171 Z M 31.298 93.254 C 29.78 93.921 29.552 95.98 30.888 96.961 C 31.254 97.23 31.697 97.377 32.152 97.379 C 32.436 97.379 32.726 97.319 33 97.201 C 36.416 95.725 39.392 92.101 40.584 87.958 C 41.798 83.743 41.046 79.36 38.466 75.607 C 33.758 68.76 37.372 59.222 37.415 59.125 C 37.844 58.021 37.299 56.777 36.195 56.344 C 35.095 55.908 33.844 56.451 33.414 57.557 C 33.226 58.03 28.914 69.292 34.929 78.035 C 37.28 81.462 37.06 84.674 36.459 86.762 C 35.497 90.103 33.113 92.466 31.304 93.25 L 31.298 93.254 Z M 67.989 68.485 C 69.565 67.983 70.005 65.964 68.783 64.85 C 68.215 64.335 67.415 64.16 66.683 64.392 C 63.854 65.279 60.245 68.689 61.899 74.447 C 63.602 80.354 63.349 81.245 61.315 83.152 C 60.447 83.962 60.4 85.321 61.211 86.186 C 62.02 87.056 63.381 87.102 64.246 86.288 C 68.398 82.405 67.629 78.807 66.029 73.255 C 65.036 69.795 67.274 68.727 67.989 68.48 L 67.989 68.485 Z M 56.932 14.556 C 57.952 19.025 64.782 21.189 66.143 21.576 C 67.284 21.903 68.472 21.242 68.796 20.1 C 69.122 18.96 68.464 17.771 67.324 17.441 C 64.933 16.753 61.448 15.029 61.121 13.595 C 60.895 12.601 63.586 9.772 66.551 7.886 C 67.549 7.248 67.844 5.92 67.211 4.922 C 66.576 3.919 65.247 3.624 64.246 4.262 C 62.27 5.518 55.889 9.97 56.937 14.556 L 56.932 14.556 Z"/>
</svg>