<?xml version="1.0" encoding="utf-8"?>
<svg xmlns="http://www.w3.org/2000/svg" viewBox="0 0 120 120">
  <path d="M 80.373 52.615 L 72.316 52.615 L 67.839 48.251 C 68.287 47.579 68.623 46.796 68.847 45.901 L 82.724 45.901 L 91.005 54.182 C 91.453 54.63 92.012 54.854 92.572 54.854 C 93.131 54.854 93.691 54.63 94.139 54.182 C 95.034 53.287 95.034 51.944 94.139 51.049 L 86.752 43.663 L 94.139 36.276 C 95.034 35.381 95.034 34.038 94.139 33.143 C 93.243 32.248 91.9 32.248 91.005 33.143 L 82.724 41.424 L 68.847 41.424 C 68.623 40.641 68.287 39.858 67.839 39.074 L 72.316 34.71 L 80.373 34.71 C 81.605 34.71 82.612 33.702 82.612 32.471 C 82.612 31.24 81.605 30.233 80.373 30.233 L 73.659 30.233 L 73.659 23.518 C 73.659 22.287 72.652 21.28 71.421 21.28 C 70.19 21.28 69.182 22.287 69.182 23.518 L 69.182 31.576 L 64.818 36.053 C 64.146 35.605 63.363 35.269 62.468 35.045 L 62.468 21.056 L 70.749 12.775 C 71.644 11.88 71.644 10.537 70.749 9.641 C 69.854 8.746 68.511 8.746 67.616 9.641 L 60.229 17.028 L 52.843 9.641 C 51.948 8.746 50.605 8.746 49.71 9.641 C 48.814 10.537 48.814 11.88 49.71 12.775 L 57.991 21.056 L 57.991 34.933 C 57.208 35.157 56.424 35.493 55.641 35.941 L 51.276 31.464 L 51.276 23.407 C 51.276 22.176 50.269 21.168 49.038 21.168 C 47.807 21.168 46.8 22.176 46.8 23.407 L 46.8 30.121 L 40.085 30.121 C 38.854 30.121 37.847 31.128 37.847 32.36 C 37.847 33.591 38.854 34.598 40.085 34.598 L 48.143 34.598 L 52.619 38.962 C 52.172 39.634 51.836 40.417 51.612 41.312 L 37.623 41.312 L 29.342 33.031 C 28.447 32.136 27.104 32.136 26.208 33.031 C 25.313 33.926 25.313 35.269 26.208 36.164 L 33.594 43.551 L 26.208 50.937 C 25.313 51.832 25.313 53.175 26.208 54.07 C 26.656 54.518 27.216 54.742 27.775 54.742 C 28.335 54.742 28.894 54.518 29.342 54.07 L 37.623 45.789 L 51.5 45.789 C 51.724 46.572 52.06 47.356 52.508 48.139 L 48.031 52.504 L 40.085 52.504 C 38.854 52.504 37.847 53.511 37.847 54.742 C 37.847 55.973 38.854 56.98 40.085 56.98 L 46.8 56.98 L 46.8 63.695 C 46.8 64.926 47.807 65.933 49.038 65.933 C 50.269 65.933 51.276 64.926 51.276 63.695 L 51.276 55.637 L 55.641 51.273 C 56.313 51.72 57.096 52.056 57.991 52.28 L 57.991 66.157 L 49.71 74.438 C 48.814 75.334 48.814 76.676 49.71 77.572 C 50.605 78.467 51.948 78.467 52.843 77.572 L 60.229 70.186 L 67.616 77.572 C 68.063 78.019 68.623 78.243 69.182 78.243 C 69.742 78.243 70.301 78.019 70.749 77.572 C 71.644 76.676 71.644 75.334 70.749 74.438 L 62.468 66.269 L 62.468 52.28 C 63.251 52.056 64.034 51.72 64.818 51.273 L 69.182 55.637 L 69.182 63.695 C 69.182 64.926 70.19 65.933 71.421 65.933 C 72.652 65.933 73.659 64.926 73.659 63.695 L 73.659 56.98 L 80.373 56.98 C 81.605 56.98 82.612 55.973 82.612 54.742 C 82.612 53.623 81.605 52.615 80.373 52.615 M 60.229 48.139 C 57.767 48.139 55.753 46.125 55.753 43.663 C 55.753 41.201 57.767 39.186 60.229 39.186 C 62.691 39.186 64.706 41.201 64.706 43.663 C 64.706 46.125 62.691 48.139 60.229 48.139 M 62.02 85.965 C 61.572 85.406 60.901 84.958 60.229 84.958 C 59.558 84.958 58.775 85.294 58.439 85.965 L 52.396 94.806 C 49.486 99.059 50.381 104.766 54.41 107.9 C 56.201 109.243 58.215 109.914 60.341 109.914 C 62.468 109.914 64.482 109.243 66.273 107.9 C 70.301 104.766 71.197 98.947 68.287 94.806 L 62.02 85.965 Z M 63.363 104.319 C 61.46 105.773 58.886 105.773 56.984 104.319 C 54.858 102.64 54.298 99.618 55.865 97.268 L 60.118 91.113 L 64.37 97.268 C 66.049 99.618 65.601 102.64 63.363 104.319 M 30.125 64.702 C 29.678 64.142 29.006 63.695 28.335 63.695 C 27.663 63.695 26.88 64.03 26.544 64.702 L 20.501 73.543 C 17.591 77.796 18.486 83.503 22.515 86.637 C 24.306 87.98 26.32 88.651 28.447 88.651 C 30.573 88.651 32.587 87.98 34.378 86.637 C 38.407 83.503 39.302 77.684 36.392 73.543 L 30.125 64.702 Z M 31.468 83.055 C 29.566 84.51 26.992 84.51 25.089 83.055 C 22.963 81.377 22.403 78.355 23.97 76.005 L 28.223 69.85 L 32.475 76.005 C 34.154 78.355 33.706 81.377 31.468 83.055 M 100.07 73.543 L 94.027 64.702 C 93.579 64.142 92.908 63.695 92.236 63.695 C 91.565 63.695 90.781 64.03 90.446 64.702 L 84.402 73.543 C 81.493 77.796 82.388 83.503 86.417 86.637 C 88.207 87.98 90.222 88.651 92.348 88.651 C 94.474 88.651 96.489 87.98 98.279 86.637 C 102.084 83.503 102.98 77.796 100.07 73.543 M 95.258 83.055 C 93.355 84.51 90.781 84.51 88.879 83.055 C 86.752 81.377 86.193 78.355 87.76 76.005 L 92.012 69.85 L 96.265 76.005 C 97.944 78.355 97.496 81.377 95.258 83.055"/>
</svg>