<?xml version="1.0" encoding="utf-8"?>
<svg xmlns="http://www.w3.org/2000/svg" viewBox="-5 -10 120 120">
  <path d="M 30.566 20.942 L 46.511 20.942 C 48.016 20.942 48.957 19.312 48.204 18.008 C 47.855 17.403 47.21 17.03 46.511 17.03 L 30.566 17.03 C 29.06 17.03 28.119 18.66 28.872 19.964 C 29.221 20.569 29.867 20.942 30.566 20.942 M 30.566 40.213 L 46.511 40.213 C 48.016 40.213 48.957 38.583 48.204 37.279 C 47.855 36.674 47.21 36.301 46.511 36.301 L 30.566 36.301 C 29.06 36.301 28.119 37.931 28.872 39.235 C 29.221 39.84 29.867 40.213 30.566 40.213 M 46.512 26.707 L 37.579 26.707 C 36.073 26.707 35.132 28.337 35.885 29.64 C 36.234 30.246 36.88 30.618 37.579 30.618 L 46.512 30.618 C 48.018 30.618 48.959 28.989 48.206 27.685 C 47.856 27.08 47.211 26.707 46.512 26.707 M 30.566 59.47 L 46.511 59.47 C 48.016 59.47 48.957 57.84 48.204 56.536 C 47.855 55.931 47.21 55.558 46.511 55.558 L 30.566 55.558 C 29.06 55.558 28.119 57.188 28.872 58.492 C 29.221 59.097 29.867 59.47 30.566 59.47 M 46.512 45.938 L 37.579 45.938 C 36.073 45.938 35.132 47.567 35.885 48.871 C 36.234 49.476 36.88 49.849 37.579 49.849 L 46.512 49.849 C 48.018 49.849 48.959 48.219 48.206 46.916 C 47.856 46.31 47.211 45.938 46.512 45.938 M 52.623 78.297 C 52.621 84.851 59.714 88.95 65.391 85.675 C 71.068 82.4 71.071 74.208 65.396 70.929 C 64.665 70.507 63.876 70.195 63.053 70.005 L 63.053 38.258 C 63.053 36.753 61.423 35.812 60.12 36.565 C 59.515 36.914 59.142 37.56 59.142 38.258 L 59.142 70.043 C 55.325 70.963 52.633 74.373 52.623 78.299 L 52.623 78.297 Z M 61.138 73.708 C 64.679 73.705 66.895 77.537 65.127 80.605 C 64.924 80.957 64.675 81.28 64.387 81.567 C 63.069 82.884 61.086 83.277 59.366 82.561 C 57.647 81.842 56.53 80.16 56.534 78.297 C 56.544 75.761 58.602 73.71 61.138 73.708"/>
  <path d="M 42.662 78.19 C 42.672 92.417 58.079 101.298 70.395 94.176 C 70.406 94.17 70.417 94.163 70.429 94.157 C 82.721 87.002 82.658 69.223 70.315 62.156 C 70.302 62.148 70.289 62.141 70.276 62.133 L 70.276 12.809 C 70.157 5.783 62.478 1.521 56.453 5.136 C 53.751 6.758 52.076 9.658 52.023 12.809 L 52.023 62.133 C 46.263 65.434 42.696 71.552 42.662 78.19 M 55.908 12.809 C 55.905 11.428 56.448 10.102 57.421 9.122 C 58.909 7.599 61.173 7.134 63.14 7.946 C 65.109 8.755 66.386 10.681 66.365 12.809 L 66.365 64.012 L 66.365 64.007 C 66.39 64.068 66.417 64.124 66.446 64.175 L 66.537 64.343 L 66.537 64.348 C 66.568 64.398 66.602 64.446 66.64 64.492 L 66.757 64.648 L 66.899 64.766 C 66.943 64.81 66.992 64.849 67.047 64.883 C 67.101 64.929 67.161 64.968 67.225 65 L 67.327 65.065 L 67.332 65.065 C 73.445 68.02 76.704 74.807 75.19 81.425 C 73.676 88.046 67.787 92.741 60.996 92.742 C 49.785 92.741 42.779 80.605 48.385 70.896 C 49.845 68.368 52.031 66.337 54.659 65.067 L 54.761 65 C 54.827 64.969 54.889 64.929 54.945 64.883 C 54.997 64.85 55.045 64.81 55.088 64.766 L 55.414 64.648 L 55.532 64.492 L 55.632 64.348 L 55.723 64.179 L 55.723 64.175 C 55.759 64.123 55.786 64.066 55.805 64.007 L 55.805 63.299 L 55.908 12.809 Z"/>
</svg>